<svg width="35" height="35" viewBox="0 0 35 35" fill="none" xmlns="http://www.w3.org/2000/svg">
<path d="M32.4758 0H2.52422C1.13007 0 0 1.13007 0 2.52422V32.4758C0 33.8699 1.13007 35 2.52422 35H18.6963V21.4648H14.1504V16.167H18.6963V12.2681C18.6963 7.74677 21.4566 5.28584 25.4898 5.28584C27.4215 5.28584 29.0816 5.42976 29.5654 5.49412V10.2197H26.7843C24.5899 10.2197 24.165 11.2625 24.165 12.7928V16.167H29.4116L28.728 21.4648H24.165V35H32.4758C33.8699 35 35 33.8699 35 32.4758V2.52422C35 1.13007 33.8699 0 32.4758 0V0Z" fill="white"/>
</svg>
