<svg width="24" height="37" viewBox="0 0 24 37" fill="none" xmlns="http://www.w3.org/2000/svg">
<path fill-rule="evenodd" clip-rule="evenodd" d="M12.0158 31.1065L5.51905 24.2359L7.63206 22.2504L12.0158 26.8833L16.3679 22.2504L18.4809 24.2359L12.0158 31.1065ZM24 28.333V8.66695C24 3.87649 20.0894 0 15.3272 0H8.6728C3.87911 0 0 3.90801 0 8.66695V28.333C0 33.1235 3.91064 37 8.6728 37H15.3272C20.1209 37 24 33.092 24 28.333ZM15.3272 2.86797C18.5125 2.86797 21.1301 5.4523 21.1301 8.66695V28.333C21.1301 31.5162 18.544 34.132 15.3272 34.132H8.6728C5.48752 34.132 2.86991 31.5477 2.86991 28.333V8.66695C2.86991 5.48382 5.45598 2.86797 8.6728 2.86797H15.3272ZM11.9842 5.83049C11.1958 5.83049 10.5335 6.49233 10.5335 7.28024C10.5335 8.06814 11.1958 8.72998 11.9842 8.72998C12.7727 8.72998 13.435 8.06814 13.435 7.28024C13.435 6.49233 12.7727 5.83049 11.9842 5.83049ZM11.9842 11.6295C11.1958 11.6295 10.5335 12.2913 10.5335 13.0792C10.5335 13.8671 11.1958 14.529 11.9842 14.529C12.7727 14.529 13.435 13.8671 13.435 13.0792C13.435 12.2913 12.7727 11.6295 11.9842 11.6295ZM11.9842 17.4284C11.1958 17.4284 10.5335 18.0903 10.5335 18.8782C10.5335 19.6661 11.1958 20.3279 11.9842 20.3279C12.7727 20.3279 13.435 19.6661 13.435 18.8782C13.435 18.0903 12.7727 17.4284 11.9842 17.4284Z" fill="#36B1E5"/>
</svg>
