<svg width="35" height="35" viewBox="0 0 35 35" fill="none" xmlns="http://www.w3.org/2000/svg">
<path d="M32.7697 0H2.2352C1.00028 0 0 1.00028 0 2.23273V32.7673C0 33.9997 1.00028 35 2.2352 35H32.7673C33.9997 35 35 33.9997 35 32.7673V2.23273C35.0025 0.997812 34.0022 0 32.7697 0ZM29.0329 21.327C29.6726 21.979 31.0606 23.0732 30.8087 24.1871C30.5765 25.2096 29.0502 24.8366 27.5683 24.8959C25.8764 24.9675 24.8737 25.0046 23.8561 24.1871C23.377 23.7993 23.0954 23.3399 22.636 22.8262C22.2186 22.3619 21.6925 21.5295 20.9763 21.5616C19.6895 21.6259 20.0921 23.419 19.6352 24.6415C12.4825 25.7678 9.61012 21.3492 7.07607 17.0616C5.84856 14.9845 4.07522 10.524 4.07522 10.524L9.13344 10.5067C9.13344 10.5067 10.7561 13.4581 11.1859 14.2188C11.5514 14.8659 11.954 15.3796 12.3689 15.9576C12.7172 16.4367 13.2679 17.3753 13.8706 17.2987C14.8511 17.1727 15.0289 13.3692 14.4214 12.0948C14.1793 11.5786 13.5989 11.3983 12.9987 11.2229C13.2013 9.94355 18.6719 9.6768 19.5561 10.6697C20.8404 12.1121 18.667 16.128 20.4255 17.2987C22.8953 16.0045 25.0046 10.5857 25.0046 10.5857L30.9272 10.6228C30.9272 10.6228 30.0011 13.552 29.0304 14.8511C28.4648 15.6118 26.5877 17.3061 26.6618 18.5633C26.7211 19.5586 28.2475 20.5268 29.0329 21.327Z" fill="white"/>
</svg>
